<?xml version="1.0" encoding="utf-8"?>
<!-- Generator: Adobe Illustrator 19.0.0, SVG Export Plug-In . SVG Version: 6.00 Build 0)  -->
<svg version="1.1" id="Layer_1" xmlns="http://www.w3.org/2000/svg" xmlns:xlink="http://www.w3.org/1999/xlink" x="0px" y="0px"
	 viewBox="-223 25 512 512" style="enable-background:new -223 25 512 512;" xml:space="preserve">
<style type="text/css">
	.st0{fill:#FFFFFF;}
	.st1{fill:#048767;}
</style>
<circle class="st0" cx="159" cy="418.1" r="84"/>
<g>
	<path class="st1" d="M-192.8,511.5c365.6-0.2,341.5,0.3,344.7-0.3c55.5,3.2,99.4-41.2,99.4-93.7c0-4.2-3.4-7.6-7.5-7.6h-78.9v-78.9
		c0-3.8-2.9-6.8-6.5-7.3c-0.1-78.9-0.3-155.6-0.3-164.3c0-0.3,0.2-0.5,0.2-0.8c0-2.5-1.3-4.8-3.2-6.1L55.4,52.8
		c-1.5-1.5-4-2.3-5.4-2.3h-242.8c-8.4,0-15.2,6.8-15.2,15.2v430.6C-208,504.7-201.2,511.5-192.8,511.5L-192.8,511.5z M78.5,418.7
		c-0.6-40.5,30.2-75.9,71.4-79.7v75.4l-53.3,53.3C85.2,454.1,78.7,436.7,78.5,418.7z M235.9,425.1c-4.2,44-44.7,77.5-90.7,70.4
		c-14.4-2.2-27.4-8.3-38-17.1l53.3-53.3H235.9z M57.5,151.1V76.2l74.9,74.9H57.5z M-192.8,65.5H42.4v93.1c0,4.3,3.5,7.5,7.6,7.5h93
		c0.1,22.1,0.2,89.5,0.3,158.4c-42.2,6.3-75.4,41.3-79.5,83.8c-0.3,3-0.5,6.1-0.5,9.1c0,33.8,17.8,62.6,42.9,78.8l-299.3-0.1
		L-192.8,65.5z"/>
	<path class="st1" d="M43.4,359.3h-207.9c-4.2,0-7.5,3.4-7.5,7.5s3.4,7.5,7.5,7.5H43.4c4.2,0,7.5-3.4,7.5-7.5S47.6,359.3,43.4,359.3
		z"/>
	<path class="st1" d="M43.4,404.6h-207.9c-4.2,0-7.5,3.4-7.5,7.5c0,4.2,3.4,7.5,7.5,7.5H43.4c4.2,0,7.5-3.4,7.5-7.5
		C50.9,407.9,47.6,404.6,43.4,404.6z"/>
	<path class="st1" d="M43.4,449.8h-207.9c-4.2,0-7.5,3.4-7.5,7.5s3.4,7.5,7.5,7.5H43.4c4.2,0,7.5-3.4,7.5-7.5S47.6,449.8,43.4,449.8
		z"/>
	<path class="st1" d="M-145,108.7H-5.5c4.2,0,7.5-3.4,7.5-7.5s-3.4-7.5-7.5-7.5H-145c-4.2,0-7.5,3.4-7.5,7.5S-149.2,108.7-145,108.7
		z"/>
	<path class="st1" d="M-145,147.7H-5.5c4.2,0,7.5-3.4,7.5-7.5c0-4.2-3.4-7.5-7.5-7.5H-145c-4.2,0-7.5,3.4-7.5,7.5
		C-152.5,144.4-149.2,147.7-145,147.7z"/>
	<path class="st1" d="M179.9,301c-4.2,0-7.5,3.4-7.5,7.5V395c0,4.2,3.4,7.5,7.5,7.5h86.4c0.1,0,0.1,0,0.2,0c4.2,0,7.5-3.4,7.5-7.5
		c0-0.5-0.1-1.1-0.2-1.6C273,342.3,231.2,301,179.9,301z M187.5,387.4v-71c37.5,3.6,67.4,33.5,71,71H187.5z"/>
	<path class="st1" d="M114,319.5c0-4.2-3.4-7.5-7.5-7.5h-9.4v-79.9c0-4.2-3.4-7.5-7.5-7.5H54.3c-4.2,0-7.5,3.4-7.5,7.5v79.9H32.5
		v-57.7c0-4.2-3.4-7.5-7.5-7.5h-35.3c-4.2,0-7.5,3.4-7.5,7.5v57.7h-14.3v-72.1c0-4.2-3.4-7.5-7.5-7.5h-35.3c-4.2,0-7.5,3.4-7.5,7.5
		v72.1h-14.3v-51c0-4.2-3.4-7.5-7.5-7.5h-35.3c-4.2,0-7.5,3.4-7.5,7.5v51h-9.4c-4.2,0-7.5,3.4-7.5,7.5s3.4,7.5,7.5,7.5
		c6.5,0,262.2,0,246,0C97.7,325.9,114,330.9,114,319.5z M-132,311.9v-43.5h20.2v43.5H-132z M-67.4,311.9v-64.6h20.2v64.6H-67.4z
		 M-2.8,311.9v-50.1h20.2v50.1H-2.8z M61.9,311.9v-72.3h20.2v72.3H61.9z"/>
	<path class="st1" d="M-61.2,178.4l-64.6,39.4c-3.6,2.2-4.7,6.8-2.5,10.3c2.2,3.6,6.8,4.7,10.3,2.5l61.1-37.2l60.9,29.5
		c2,1,4.3,1,6.4,0.1L75,194c3.8-1.7,5.5-6.2,3.8-9.9c-1.7-3.8-6.2-5.5-9.9-3.8L7.5,207.8L-54,178.1C-56.3,177-59,177.1-61.2,178.4z"
		/>
</g>
</svg>
