<?xml version="1.0" encoding="utf-8"?>
<!-- Generator: Adobe Illustrator 19.0.0, SVG Export Plug-In . SVG Version: 6.00 Build 0)  -->
<svg version="1.1" id="Capa_1" xmlns="http://www.w3.org/2000/svg" xmlns:xlink="http://www.w3.org/1999/xlink" x="0px" y="0px"
	 viewBox="-449 251 60 60" style="enable-background:new -449 251 60 60;" xml:space="preserve">
<style type="text/css">
	.st0{fill:#FFFFFF;}
	.st1{fill:#0083BB;}
</style>
<g>
	<circle class="st0" cx="-416.5" cy="289.5" r="10.7"/>
	<g>
		<path class="st1" d="M-395.3,309.3l-2.7-2.7v-35l-0.5-0.5l-4.5-4.5V251h-40v52h5v5h38.6l2.7,2.7c0.2,0.2,0.5,0.3,0.7,0.3
			s0.5-0.1,0.7-0.3C-394.9,310.3-394.9,309.7-395.3,309.3z M-401.4,271H-413v-11.6l10,10L-401.4,271z M-441,301v-48h36v11.6
			l-8.1-8.1l-0.5-0.5H-438v45H-441z M-436,306v-3v-45h21v15h15v31.6l-7.5-7.5c1.7-2.1,2.8-4.7,2.8-7.6c0-6.5-5.3-11.8-11.8-11.8
			s-11.8,5.3-11.8,11.8s5.3,11.8,11.8,11.8c2.9,0,5.6-1.1,7.6-2.8l7.5,7.5H-436z M-416.5,299.3c-5.4,0-9.8-4.4-9.8-9.8
			s4.4-9.8,9.8-9.8s9.8,4.4,9.8,9.8S-411.1,299.3-416.5,299.3z"/>
		<path class="st1" d="M-422.4,287h6c0.6,0,1-0.4,1-1s-0.4-1-1-1h-6c-0.6,0-1,0.4-1,1S-422.9,287-422.4,287z"/>
		<path class="st1" d="M-410.4,291h-12c-0.6,0-1,0.4-1,1s0.4,1,1,1h12c0.6,0,1-0.4,1-1S-409.8,291-410.4,291z"/>
	</g>
</g>
</svg>
